<?xml version="1.0" encoding="utf-8"?>
<!-- Generator: Adobe Illustrator 28.3.0, SVG Export Plug-In . SVG Version: 6.00 Build 0)  -->
<svg version="1.1" id="Layer_1" xmlns="http://www.w3.org/2000/svg" xmlns:xlink="http://www.w3.org/1999/xlink" x="0px" y="0px"
	 viewBox="0 0 561.97 353.84" style="enable-background:new 0 0 561.97 353.84;" xml:space="preserve">
<style type="text/css">
	.st0{fill:#FFFFFF;}
</style>
<g>
	<g>
		<g>
			<g>
				<rect x="149.58" y="130.63" class="st0" width="25.96" height="73.05"/>
			</g>
			<g>
				<rect x="194.98" y="78.32" class="st0" width="25.96" height="103.6"/>
			</g>
			<g>
				<rect x="285.77" y="125.89" class="st0" width="25.96" height="86.73"/>
			</g>
			<g>
				<rect x="331.17" y="46.8" class="st0" width="25.96" height="103.6"/>
			</g>
			<g>
				<rect x="376.56" y="67.44" class="st0" width="25.96" height="84.17"/>
			</g>
			<g>
				<rect x="240.37" class="st0" width="25.96" height="197.2"/>
			</g>
		</g>
		<g>
			<g>
				<path class="st0" d="M121.25,188.11l-4.59-1.55c0.29-0.87,29.44-86.2,93.84-86.2c32.29,0,48.44,19.19,64.06,37.71
					c3.72,4.4,7.59,8.99,11.55,13.25c13.63,14.41,26.69,21.13,41.14,21.18c0.05,0,0.1,0,0.15,0c18.32,0,38.53-11.41,60.14-33.89
					c28.19-29.39,45.49-50.76,45.64-50.96l3.77,3.05c-0.19,0.19-17.6,21.76-45.93,51.29c-22.53,23.5-43.9,35.39-63.62,35.39
					c-0.05,0-0.1,0-0.15,0c-15.62-0.05-30.22-7.49-44.62-22.72c-4.11-4.35-7.98-8.94-11.75-13.44
					c-15.57-18.52-30.31-36.02-60.34-36.02C149.58,105.25,121.54,187.29,121.25,188.11z"/>
			</g>
			<g>
				<polygon class="st0" points="433.13,103.6 432.74,91.71 421.67,92.24 421.48,87.41 437.43,86.64 437.96,103.41 				"/>
			</g>
		</g>
	</g>
	<g>
		<path class="st0" d="M51,244.92c-5.8,0.68-6.82,1.6-10.1,6.87c-3.72,6.04-6.82,11.8-10.88,19.14c-1.02,1.89-1.26,2.9-1.26,4.88
			v10.2c0,6.87,0.73,7.4,8.46,8.12v2.32H13.44v-2.32c7.54-1.02,8.12-1.16,8.12-8.12v-10.68c0-1.64-0.34-2.42-1.64-4.83
			c-2.9-5.41-5.7-10.64-10.2-18.42c-3.24-5.66-4.06-6.62-9.72-7.2v-2.32h20.4v2.32c-5.99,0.82-5.66,1.89-4.16,4.74
			c3.48,6.38,7.4,13.83,10.88,20.06c3-5.56,7.69-14.6,10.06-19.14c1.89-4.16,1.64-4.98-4.88-5.66v-2.32h18.76v2.37H51z"/>
		<path class="st0" d="M98.38,283.35c-0.48,2.18-2.76,10.68-3.58,13.2H54.53v-2.32c7.69-0.58,8.27-1.31,8.27-8.12v-32.73
			c0-7.4-0.92-7.78-7.11-8.36v-2.32h25.38c7.78,0,11.02-0.1,12.04-0.15c0.1,2.08,0.44,8.27,0.73,12.67l-2.47,0.44
			c-0.73-2.8-1.6-4.54-2.47-6.28c-1.31-2.76-3.24-3.34-8.22-3.34h-7.88c-2.56,0-2.76,0.24-2.76,2.66v18.32h9.19
			c6.24,0,6.62-1.26,7.64-6.87h2.56v17.07h-2.56c-1.06-5.95-1.74-6.82-7.69-6.82h-9.14v16.49c0,5.8,1.84,6.28,5.95,6.38h7.74
			c5.08,0,5.9-0.73,7.69-2.9c1.6-1.74,3.34-5.12,4.5-7.64L98.38,283.35z"/>
		<path class="st0" d="M125.6,242.6c5.9,0,10.64,1.06,14.02,3.58c3.24,2.42,5.46,6.28,5.46,11.75c0,12.09-10.35,17.02-18.23,17.02
			c-0.92,0-1.74-0.1-2.22-0.15l-5.7-1.5v12.91c0,6.96,0.58,7.16,8.22,7.98v2.32h-22.87v-2.32c7.16-0.73,7.45-1.26,7.45-8.12v-32.92
			c0-7.4-0.92-7.54-7.45-8.22v-2.32H125.6z M118.88,270.4c1.02,0.48,3.24,1.06,6.04,1.06c5.56,0,12.42-2.8,12.42-13.25
			c0-9.14-5.95-12.76-12.91-12.76c-2.42,0-4.16,0.44-4.64,1.02c-0.68,0.58-0.92,1.6-0.92,3.82V270.4z"/>
		<path class="st0" d="M199.23,296.5v-2.32c5.37-0.68,6.04-1.5,4.88-4.64c-1.06-3.24-2.76-7.4-4.5-12.62h-17.94
			c-1.31,3.72-2.56,6.96-3.72,10.35c-1.84,5.37-0.68,6.04,6.14,6.87v2.32h-19.14v-2.32c5.22-0.68,6.53-1.26,9.48-8.7l17.16-43.51
			l2.66-0.48c5.22,14.17,10.93,29.83,16.15,44.19c2.66,7.2,3.38,7.88,9.28,8.56v2.32H199.23z M190.97,252.32
			c-2.66,7.16-5.46,14.7-7.98,21.22h15.52L190.97,252.32z"/>
		<path class="st0" d="M246.13,242.6c11.7,0,19.05,2.32,24.22,7.2c4.06,3.96,7.06,9.77,7.06,17.74c0,9.72-3.96,17.6-10.35,22.38
			c-6.28,4.74-14.36,6.53-24.56,6.53h-19.39v-2.32c7.16-0.68,7.45-1.26,7.45-8.03v-33.07c0-7.11-1.02-7.45-7.45-8.12v-2.32
			C223.11,242.6,246.13,242.6,246.13,242.6z M237.72,285.48c0,6.24,2.66,7.98,8.85,7.98c14.94,0,22.58-10.2,22.58-24.7
			c0-9.04-3.05-15.91-9.62-19.92c-3.82-2.42-8.61-3.34-14.17-3.34c-3.72,0-5.7,0.48-6.57,1.16c-0.73,0.48-1.06,1.4-1.06,4.64
			L237.72,285.48L237.72,285.48z"/>
		<path class="st0" d="M337.31,244.92c-5.56,0.73-6.96,1.5-9.96,8.94c-2.22,5.46-13.68,33.26-17.74,43.51h-2.76
			c-4.88-13.34-12.04-32.73-16.73-45.01c-2.32-6.14-3.72-6.96-8.8-7.45v-2.32h21.08v2.32c-6.14,0.68-6.48,1.64-5.32,4.74
			c2.08,6.04,8.12,22.58,13.34,36.31c4.4-10.68,9.86-24.22,13.78-34.66c1.84-4.79,0.82-5.56-5.95-6.38v-2.32h19.05L337.31,244.92
			L337.31,244.92z"/>
		<path class="st0" d="M340.59,296.5v-2.32c6.82-0.73,7.45-1.06,7.45-8.12v-32.92c0-7.16-0.68-7.45-7.45-8.22v-2.32h22.24v2.32
			c-6.87,0.73-7.54,1.06-7.54,8.22v32.92c0,7.11,0.68,7.4,7.54,8.12v2.32H340.59z"/>
		<path class="st0" d="M398.46,255.22c-1.4-5.46-3.72-10.88-11.51-10.88c-6.48,0-8.7,4.74-8.7,9.04c0,5.7,3.63,8.61,10.54,12.18
			c9.96,5.12,14.26,8.94,14.26,16.82c0,8.7-7.54,15.33-18.23,15.33c-4.98,0-9.28-1.4-12.67-2.76c-0.68-2.32-1.64-7.98-2.22-12.42
			l2.56-0.68c1.64,5.56,5.32,12.76,13.92,12.76c5.99,0,9.62-4.16,9.62-9.52c0-6.38-3.38-8.94-10.68-12.96
			c-8.7-4.74-13.59-8.7-13.59-16.44c0-7.4,6.14-14.36,17.07-14.36c4.64,0,9.19,1.26,10.93,1.6c0.34,3,0.68,6.28,1.31,11.7
			L398.46,255.22z"/>
		<path class="st0" d="M439.85,241.44c14.17,0,26.88,10.88,26.88,27.36c0,17.84-12.09,28.96-27.36,28.96
			c-15.91,0-27.51-12.09-27.51-27.7C411.81,255.22,422.35,241.44,439.85,241.44z M438.2,244.53c-9.28,0-17.74,7.78-17.74,23.3
			c0,15.42,8.46,26.78,20.26,26.78c10.06,0,17.6-7.45,17.6-23.45C458.27,253.72,449.03,244.53,438.2,244.53z"/>
		<path class="st0" d="M523.97,297.18c-1.06,0-1.98-0.1-3.05-0.19c-6.04-0.39-9.28-1.98-12.96-7.11c-3.05-4.25-6.04-9.48-8.7-13.68
			c-1.64-2.66-2.76-3.14-6.96-3.14h-2.9v13c0,7.06,0.92,7.45,7.54,8.12v2.32H474.8v-2.32c6.87-0.73,7.45-1.06,7.45-8.12v-33.07
			c0-7.06-0.92-7.3-7.45-8.03v-2.32h21.13c6.04,0,10.1,0.73,13.25,2.8c3.38,2.18,5.66,5.9,5.66,10.93c0,7.11-4.54,11.6-10.68,14.26
			c1.5,2.56,5.08,8.12,7.54,11.84c3.05,4.4,4.64,6.48,6.53,8.56c2.22,2.42,4.16,3.34,6.04,3.82L523.97,297.18z M493.37,270.25
			c4.3,0,7.06-0.68,9.14-2.42c3.24-2.42,4.54-5.7,4.54-10.2c0-8.85-5.9-12.09-12.28-12.09c-2.42,0-3.82,0.34-4.4,0.82
			c-0.73,0.58-1.02,1.4-1.02,3.58v20.31C489.35,270.25,493.37,270.25,493.37,270.25z"/>
		<path class="st0" d="M557.38,255.22c-1.4-5.46-3.72-10.88-11.51-10.88c-6.48,0-8.7,4.74-8.7,9.04c0,5.7,3.63,8.61,10.54,12.18
			c9.96,5.12,14.26,8.94,14.26,16.82c0,8.7-7.54,15.33-18.23,15.33c-4.98,0-9.28-1.4-12.67-2.76c-0.68-2.32-1.64-7.98-2.22-12.42
			l2.56-0.68c1.64,5.56,5.32,12.76,13.92,12.76c5.99,0,9.62-4.16,9.62-9.52c0-6.38-3.38-8.94-10.68-12.96
			c-8.7-4.74-13.59-8.7-13.59-16.44c0-7.4,6.14-14.36,17.07-14.36c4.64,0,9.19,1.26,10.93,1.6c0.34,3,0.68,6.28,1.31,11.7
			L557.38,255.22z"/>
	</g>
	<g>
		<path class="st0" d="M10.39,345.19l-3,8.22H5.51l8.7-23.69h2.18l9.09,23.69H23.5l-3.09-8.22H10.39z M19.77,343.5
			c-2.66-7.06-4.01-10.44-4.45-12.04h-0.05c-0.58,1.79-2.08,5.99-4.25,12.04H19.77z"/>
		<path class="st0" d="M31.91,348.72c0.58,2.22,2.13,3.53,4.79,3.53c3,0,4.25-1.4,4.25-3.29c0-1.93-0.82-2.85-4.59-3.77
			c-4.35-1.06-5.46-2.37-5.46-4.59c0-2.32,1.74-4.5,5.61-4.5c3.82,0,5.66,2.32,5.95,4.74h-1.69c-0.29-1.4-1.4-3.19-4.3-3.19
			c-2.95,0-3.77,1.45-3.77,2.8c0,1.55,0.82,2.32,4.16,3.14c4.79,1.16,5.95,2.71,5.95,5.27c0,3.09-2.51,4.98-6.04,4.98
			c-3.87,0-6.04-2.03-6.48-5.08h1.64V348.72z"/>
		<path class="st0" d="M49.36,345.14c0.05,4.35,2.22,7.06,5.46,7.06c3.19,0,4.25-1.79,4.88-3.19h1.74
			c-0.73,2.22-2.51,4.79-6.67,4.79c-5.12,0-7.16-4.45-7.16-8.75c0-4.83,2.42-8.99,7.35-8.99c5.22,0,6.87,4.5,6.87,7.69
			c0,0.48,0,0.97-0.05,1.4H49.36z M60.09,343.64c-0.05-3.34-1.84-5.99-5.17-5.99c-3.48,0-5.08,2.42-5.46,5.99H60.09z"/>
		<path class="st0" d="M68.41,348.72c0.58,2.22,2.13,3.53,4.79,3.53c3,0,4.25-1.4,4.25-3.29c0-1.93-0.82-2.85-4.59-3.77
			c-4.35-1.06-5.46-2.37-5.46-4.59c0-2.32,1.74-4.5,5.61-4.5c3.82,0,5.66,2.32,5.95,4.74h-1.69c-0.29-1.4-1.4-3.19-4.3-3.19
			c-2.95,0-3.77,1.45-3.77,2.8c0,1.55,0.82,2.32,4.16,3.14c4.79,1.16,5.95,2.71,5.95,5.27c0,3.09-2.51,4.98-6.04,4.98
			c-3.87,0-6.04-2.03-6.48-5.08h1.64V348.72z"/>
		<path class="st0" d="M99.16,344.9c0,4.69-2.61,8.9-7.64,8.9c-4.59,0-7.4-3.77-7.4-8.85c0-4.83,2.66-8.85,7.59-8.85
			C96.21,336.05,99.16,339.58,99.16,344.9z M85.91,344.95c0,4.01,2.18,7.3,5.75,7.3c3.67,0,5.7-3,5.7-7.3c0-4.01-2.03-7.3-5.8-7.3
			C87.75,337.65,85.91,340.84,85.91,344.95z"/>
		<path class="st0" d="M105.39,341.08c0-2.85-0.05-4.06-0.05-4.59h1.64c0.05,0.53,0.05,1.64,0.05,3.77c0.97-2.56,3.14-4.06,5.9-4.21
			v1.84c-3.53,0.24-5.9,2.66-5.9,6.72v8.8h-1.69v-12.33H105.39z"/>
		<path class="st0" d="M124.83,328.07l-5.03,5.32h-1.84l4.64-5.32H124.83z M118.11,336.44h1.69v16.92h-1.69V336.44z"/>
		<path class="st0" d="M138.75,350.17c0,1.5,0.15,2.66,0.24,3.24h-1.64c-0.15-0.39-0.24-1.16-0.29-2.61c-0.58,1.26-2.08,3-5.56,3
			c-3.92,0-5.61-2.56-5.61-5.08c0-3.72,2.85-5.41,7.98-5.41c1.4,0,2.56,0,3.24,0v-1.74c0-1.69-0.48-3.96-4.35-3.96
			c-3.43,0-3.92,1.79-4.3,3.19h-1.69c0.19-1.84,1.35-4.74,6.04-4.74c3.87,0,6.04,1.64,6.04,5.37v8.75H138.75z M137.11,344.75
			c-0.63,0-2.22,0-3.34,0c-3.77,0-6.09,0.97-6.09,3.92c0,2.13,1.55,3.58,3.92,3.58c4.83,0,5.51-3.24,5.51-6.87V344.75z"/>
		<path class="st0" d="M157.56,345.14c0.05,4.35,2.22,7.06,5.46,7.06c3.19,0,4.25-1.79,4.88-3.19h1.74
			c-0.73,2.22-2.51,4.79-6.67,4.79c-5.12,0-7.16-4.45-7.16-8.75c0-4.83,2.42-8.99,7.35-8.99c5.22,0,6.87,4.5,6.87,7.69
			c0,0.48,0,0.97-0.05,1.4H157.56z M168.29,343.64c-0.05-3.34-1.84-5.99-5.17-5.99c-3.48,0-5.08,2.42-5.46,5.99H168.29z"/>
		<path class="st0" d="M176.22,340.74c0-1.5,0-2.9-0.05-4.25h1.64c0.05,0.53,0.1,2.76,0.05,3.24c0.73-1.74,2.13-3.63,5.61-3.63
			c3,0,5.7,1.69,5.7,6.38v10.97h-1.69v-10.68c0-3-1.26-4.98-4.21-4.98c-4.01,0-5.41,3.34-5.41,7.06v8.65h-1.69v-12.76H176.22z"/>
		<path class="st0" d="M208.08,353.41v-15.33h-2.9v-1.6h2.9v-2.42c0-2.85,0.82-5.95,4.59-5.95c0.48,0,1.26,0.1,1.64,0.24v1.64
			c-0.48-0.15-1.31-0.19-1.84-0.19c-1.98,0-2.76,1.4-2.76,4.35v2.32h3.67v1.6h-3.67v15.33H208.08z"/>
		<path class="st0" d="M218.62,328.41h1.69v3.29h-1.69V328.41z M218.62,336.44h1.69v16.92h-1.69V336.44z"/>
		<path class="st0" d="M227.85,340.74c0-1.5,0-2.9-0.05-4.25h1.64c0.05,0.53,0.1,2.76,0.05,3.24c0.73-1.74,2.13-3.63,5.61-3.63
			c3,0,5.7,1.69,5.7,6.38v10.97h-1.69v-10.68c0-3-1.26-4.98-4.21-4.98c-4.01,0-5.41,3.34-5.41,7.06v8.65h-1.69v-12.76H227.85z"/>
		<path class="st0" d="M259.86,350.17c0,1.5,0.15,2.66,0.24,3.24h-1.64c-0.15-0.39-0.24-1.16-0.29-2.61c-0.58,1.26-2.08,3-5.56,3
			c-3.92,0-5.61-2.56-5.61-5.08c0-3.72,2.85-5.41,7.98-5.41c1.4,0,2.56,0,3.24,0v-1.74c0-1.69-0.48-3.96-4.35-3.96
			c-3.43,0-3.92,1.79-4.3,3.19h-1.69c0.19-1.84,1.35-4.74,6.04-4.74c3.87,0,6.04,1.64,6.04,5.37v8.75H259.86z M258.21,344.75
			c-0.63,0-2.22,0-3.34,0c-3.77,0-6.09,0.97-6.09,3.92c0,2.13,1.55,3.58,3.92,3.58c4.83,0,5.51-3.24,5.51-6.87V344.75z"/>
		<path class="st0" d="M267.45,340.74c0-1.5,0-2.9-0.05-4.25h1.64c0.05,0.53,0.1,2.76,0.05,3.24c0.73-1.74,2.13-3.63,5.61-3.63
			c3,0,5.7,1.69,5.7,6.38v10.97h-1.69v-10.68c0-3-1.26-4.98-4.21-4.98c-4.01,0-5.41,3.34-5.41,7.06v8.65h-1.69v-12.76H267.45z"/>
		<path class="st0" d="M286.01,351.81l10.68-13.78h-10.15v-1.6h12.13v1.64l-10.59,13.73h10.93l-0.39,1.6h-12.62L286.01,351.81
			L286.01,351.81z"/>
		<path class="st0" d="M316.18,350.17c0,1.5,0.15,2.66,0.24,3.24h-1.64c-0.15-0.39-0.24-1.16-0.29-2.61c-0.58,1.26-2.08,3-5.56,3
			c-3.92,0-5.61-2.56-5.61-5.08c0-3.72,2.85-5.41,7.98-5.41c1.4,0,2.56,0,3.24,0v-1.74c0-1.69-0.48-3.96-4.35-3.96
			c-3.43,0-3.92,1.79-4.3,3.19h-1.69c0.19-1.84,1.35-4.74,6.04-4.74c3.87,0,6.04,1.64,6.04,5.37v8.75H316.18z M314.49,344.75
			c-0.63,0-2.22,0-3.34,0c-3.77,0-6.09,0.97-6.09,3.92c0,2.13,1.55,3.58,3.92,3.58c4.83,0,5.51-3.24,5.51-6.87V344.75z"/>
		<path class="st0" d="M323.58,348.72c0.58,2.22,2.13,3.53,4.79,3.53c3,0,4.25-1.4,4.25-3.29c0-1.93-0.82-2.85-4.59-3.77
			c-4.35-1.06-5.46-2.37-5.46-4.59c0-2.32,1.74-4.5,5.61-4.5c3.82,0,5.66,2.32,5.95,4.74h-1.69c-0.29-1.4-1.4-3.19-4.3-3.19
			c-2.95,0-3.77,1.45-3.77,2.8c0,1.55,0.82,2.32,4.16,3.14c4.79,1.16,5.95,2.71,5.95,5.27c0,3.09-2.51,4.98-6.04,4.98
			c-3.87,0-6.04-2.03-6.48-5.08h1.64V348.72z"/>
		<path class="st0" d="M351.86,345.14c0.05,4.35,2.22,7.06,5.46,7.06c3.19,0,4.25-1.79,4.88-3.19h1.74
			c-0.73,2.22-2.51,4.79-6.67,4.79c-5.12,0-7.16-4.45-7.16-8.75c0-4.83,2.42-8.99,7.35-8.99c5.22,0,6.87,4.5,6.87,7.69
			c0,0.48,0,0.97-0.05,1.4H351.86z M362.59,343.64c-0.05-3.34-1.84-5.99-5.17-5.99c-3.48,0-5.08,2.42-5.46,5.99H362.59z"/>
		<path class="st0" d="M381.35,328.41h1.69v3.29h-1.69V328.41z M381.35,336.44h1.69v16.92h-1.69V336.44z"/>
		<path class="st0" d="M390.58,340.74c0-1.5,0-2.9-0.05-4.25h1.64c0.05,0.53,0.1,2.76,0.05,3.24c0.73-1.74,2.13-3.63,5.61-3.63
			c3,0,5.7,1.69,5.7,6.38v10.97h-1.69v-10.68c0-3-1.26-4.98-4.21-4.98c-4.01,0-5.41,3.34-5.41,7.06v8.65h-1.69v-12.76H390.58z"/>
		<path class="st0" d="M410.41,336.44c2.76,7.74,4.64,13.05,5.27,15.18h0.05c0.39-1.26,2.27-6.28,5.56-15.18h1.79l-6.38,16.92h-2.03
			l-6.04-16.92H410.41z"/>
		<path class="st0" d="M428.78,345.14c0.05,4.35,2.22,7.06,5.46,7.06c3.19,0,4.25-1.79,4.88-3.19h1.74
			c-0.73,2.22-2.51,4.79-6.67,4.79c-5.12,0-7.16-4.45-7.16-8.75c0-4.83,2.42-8.99,7.35-8.99c5.22,0,6.87,4.5,6.87,7.69
			c0,0.48,0,0.97-0.05,1.4H428.78z M439.51,343.64c-0.05-3.34-1.84-5.99-5.17-5.99c-3.48,0-5.08,2.42-5.46,5.99H439.51z"/>
		<path class="st0" d="M447.44,341.08c0-2.85-0.05-4.06-0.05-4.59h1.64c0.05,0.53,0.05,1.64,0.05,3.77c0.97-2.56,3.14-4.06,5.9-4.21
			v1.84c-3.53,0.24-5.9,2.66-5.9,6.72v8.8h-1.69v-12.33H447.44z"/>
		<path class="st0" d="M460.54,348.72c0.58,2.22,2.13,3.53,4.83,3.53c3,0,4.25-1.4,4.25-3.29c0-1.93-0.82-2.85-4.59-3.77
			c-4.35-1.06-5.46-2.37-5.46-4.59c0-2.32,1.74-4.5,5.61-4.5c3.82,0,5.66,2.32,5.95,4.74h-1.69c-0.29-1.4-1.4-3.19-4.3-3.19
			c-2.95,0-3.77,1.45-3.77,2.8c0,1.55,0.82,2.32,4.16,3.14c4.79,1.16,5.95,2.71,5.95,5.27c0,3.09-2.51,4.98-6.04,4.98
			c-3.87,0-6.04-2.03-6.48-5.08h1.6V348.72z"/>
		<path class="st0" d="M477.61,328.41h1.69v3.29h-1.69V328.41z M477.61,336.44h1.69v16.92h-1.69V336.44z"/>
		<path class="st0" d="M500.57,344.9c0,4.69-2.61,8.9-7.64,8.9c-4.59,0-7.4-3.77-7.4-8.85c0-4.83,2.66-8.85,7.59-8.85
			C497.62,336.05,500.57,339.58,500.57,344.9z M487.32,344.95c0,4.01,2.18,7.3,5.75,7.3c3.67,0,5.7-3,5.7-7.3
			c0-4.01-2.03-7.3-5.8-7.3C489.16,337.65,487.32,340.84,487.32,344.95z"/>
		<path class="st0" d="M506.81,340.74c0-1.5,0-2.9-0.05-4.25h1.64c0.05,0.53,0.1,2.76,0.05,3.24c0.73-1.74,2.13-3.63,5.61-3.63
			c3,0,5.7,1.69,5.7,6.38v10.97h-1.69v-10.68c0-3-1.26-4.98-4.21-4.98c-4.01,0-5.41,3.34-5.41,7.06v8.65h-1.69v-12.76H506.81z"/>
		<path class="st0" d="M527.74,345.14c0.05,4.35,2.22,7.06,5.46,7.06c3.19,0,4.25-1.79,4.88-3.19h1.74
			c-0.73,2.22-2.51,4.79-6.67,4.79c-5.12,0-7.16-4.45-7.16-8.75c0-4.83,2.42-8.99,7.35-8.99c5.22,0,6.87,4.5,6.87,7.69
			c0,0.48,0,0.97-0.05,1.4H527.74z M538.47,343.64c-0.05-3.34-1.84-5.99-5.17-5.99c-3.48,0-5.08,2.42-5.46,5.99H538.47z"/>
		<path class="st0" d="M546.79,348.72c0.58,2.22,2.13,3.53,4.79,3.53c3,0,4.25-1.4,4.25-3.29c0-1.93-0.82-2.85-4.59-3.77
			c-4.35-1.06-5.46-2.37-5.46-4.59c0-2.32,1.74-4.5,5.61-4.5c3.82,0,5.66,2.32,5.95,4.74h-1.69c-0.29-1.4-1.4-3.19-4.3-3.19
			c-2.95,0-3.77,1.45-3.77,2.8c0,1.55,0.82,2.32,4.16,3.14c4.79,1.16,5.95,2.71,5.95,5.27c0,3.09-2.51,4.98-6.04,4.98
			c-3.87,0-6.04-2.03-6.48-5.08h1.64V348.72z"/>
	</g>
	<g>
		<rect x="6.91" y="315.16" class="st0" width="551.86" height="1.21"/>
	</g>
</g>
</svg>
