<?xml version="1.0" encoding="utf-8"?>
<!-- Generator: Adobe Illustrator 28.3.0, SVG Export Plug-In . SVG Version: 6.00 Build 0)  -->
<svg version="1.1" id="Layer_1" xmlns="http://www.w3.org/2000/svg" xmlns:xlink="http://www.w3.org/1999/xlink" x="0px" y="0px"
	 viewBox="0 0 512 512" style="enable-background:new 0 0 512 512;" xml:space="preserve">
<style type="text/css">
	.st0{fill:#FFFFFF;}
</style>
<g>
	<path class="st0" d="M512,52c0,136,0,272,0,408c-0.35,1.07-0.79,2.11-1.04,3.2c-5.03,22.3-18.17,37.56-39.61,45.54
		c-3.68,1.37-7.56,2.19-11.35,3.26c-136,0-272,0-408,0c-1.07-0.35-2.11-0.8-3.2-1.03c-17.64-3.8-31.59-13.11-40.41-28.87
		c-3.8-6.8-5.65-14.7-8.39-22.1C0,324,0,188,0,52c0.33-0.91,0.78-1.79,0.96-2.72c3.17-16.04,11.01-29.45,24.81-38.13
		C33.72,6.16,43.21,3.64,52,0c136,0,272,0,408,0c1.07,0.35,2.12,0.8,3.21,1.03c17.69,3.73,31.58,13.12,40.4,28.87
		C507.42,36.7,509.26,44.6,512,52z M255.9,40c-64.32,0-128.64,0-192.95,0C47.75,40,40,47.81,40,63.13c0,128.64,0,257.27,0,385.91
		C40,464.24,47.83,472,63.14,472c128.64,0,257.27,0,385.91,0c15.18,0,22.95-7.84,22.95-23.14c0-128.64,0-257.27,0-385.91
		c0-15.2-7.82-22.94-23.14-22.94C384.54,40,320.22,40,255.9,40z"/>
	<path class="st0" d="M421.82,422.75c-23.14,0-45.74,0-68.82,0c0-2.02,0-3.81,0-5.6c-0.02-37.33,0.06-74.65-0.14-111.98
		c-0.04-7.13-0.75-14.32-1.94-21.35c-3.91-23.06-19.53-34.04-42.73-30.44c-19.03,2.95-30.17,13.8-33.95,34.1
		c-1.48,7.97-2.09,16.21-2.14,24.33c-0.23,34.99-0.1,69.99-0.1,104.98c0,1.82,0,3.64,0,5.84c-22.6,0-44.98,0-67.68,0
		c0-75.01,0-150.05,0-225.36c22.4,0,44.66,0,67.48,0c0,9.47,0,19.01,0,29.81c3.19-4.12,5.38-7.37,7.99-10.24
		c13.63-14.96,31.12-22,50.87-23.48c17.27-1.3,34.32,0.31,50.36,7.56c20.18,9.11,31.15,25.79,35.66,46.57
		c2.88,13.26,4.79,26.99,4.99,40.54c0.64,43.98,0.29,87.98,0.31,131.97C421.99,420.8,421.9,421.6,421.82,422.75z"/>
	<path class="st0" d="M90.36,197.22c23.25,0,46.17,0,69.37,0c0,75.25,0,150.28,0,225.55c-23.16,0-46.08,0-69.37,0
		C90.36,347.71,90.36,272.68,90.36,197.22z"/>
	<path class="st0" d="M166.98,125.32c-0.14,22.52-18.71,40.81-41.3,40.67c-22.52-0.14-40.79-18.71-40.66-41.31
		c0.13-22.53,18.68-40.79,41.3-40.66C148.85,84.14,167.11,102.7,166.98,125.32z"/>
</g>
</svg>
