<svg width="24" height="24" viewBox="0 0 20 19" fill="none" xmlns="http://www.w3.org/2000/svg">
<path d="M4.87569 18.8593H1.05807V6.56523H4.87569V18.8593ZM2.96482 4.88821C1.74407 4.88821 0.753906 3.87706 0.753906 2.65628C0.753906 2.06989 0.986841 1.50753 1.40147 1.09289C1.8161 0.678253 2.37845 0.445312 2.96482 0.445312C3.55119 0.445312 4.11355 0.678253 4.52818 1.09289C4.9428 1.50753 5.17574 2.06989 5.17574 2.65628C5.17574 3.87706 4.18516 4.88821 2.96482 4.88821ZM19.1638 18.8593H15.3544V12.8746C15.3544 11.4483 15.3256 9.61924 13.3696 9.61924C11.3847 9.61924 11.0806 11.1688 11.0806 12.7719V18.8593H7.26705V6.56523H10.9285V8.24226H10.9819C11.4916 7.27633 12.7366 6.25696 14.594 6.25696C18.4577 6.25696 19.1679 8.80127 19.1679 12.106V18.8593H19.1638Z" fill="#FFFFFF"/>
</svg>
